# xmcd
#
# Track frame offsets:
#	182
#	12790
#	26917
#	38417
#	49447
#	61832
#	72932
#	85267
#	96507
#	107107
#	118230
#	127470
#	138772
#	154310
#	166935
#	176675
#	190702
#	204572
#
# Disc length: 2916 seconds
#
# Revision: 1397162661
# Processed by: cddbd v1.5.2PL0 Copyright (c) Steve Scherf et al.
# Submitted via: EZCDAudioConverter 8.0.7.1
#
DISCID=030b6212
DTITLE=Bo Diddley - The Blues Collection 05: Bo Diddley, Jungle Music
DYEAR=1993
DGENRE=Blues
TTITLE0=The Story of Bo Diddley
TTITLE1=Down Home Special
TTITLE2=Little Girl
TTITLE3=Bo Diddley
TTITLE4=You Don't Love Me
TTITLE5=Diddy Wah Diddy
TTITLE6=Pretty Thing
TTITLE7=Bring It to Jerome
TTITLE8=Dancing Girl
TTITLE9=Who Do You Love
TTITLE10=Crackin' Up
TTITLE11=I Am Looking for a Woman
TTITLE12=Cops and Robbers
TTITLE13=Nursery Rhyme
TTITLE14=Hey! Bo Diddley
TTITLE15=You Can't Judge a Book by the Cover
TTITLE16=Before You Accuse Me
TTITLE17=Say Man
EXTD=
EXTT0=
EXTT1=
EXTT2=
EXTT3=
EXTT4=
EXTT5=
EXTT6=
EXTT7=
EXTT8=
EXTT9=
EXTT10=
EXTT11=
EXTT12=
EXTT13=
EXTT14=
EXTT15=
EXTT16=
EXTT17=
PLAYORDER=
